<?xml version="1.0" standalone="no"?>
<!DOCTYPE svg PUBLIC "-//W3C//DTD SVG 20010904//EN"
 "http://www.w3.org/TR/2001/REC-SVG-20010904/DTD/svg10.dtd">
<svg version="1.0" xmlns="http://www.w3.org/2000/svg"
 width="1200.000000pt" height="1200.000000pt" viewBox="0 0 1200.000000 1200.000000"
 preserveAspectRatio="xMidYMid meet">

<g transform="translate(0.000000,1200.000000) scale(0.100000,-0.100000)"
fill="#000000" stroke="none">
<path d="M5860 10944 c-78 -15 -179 -48 -238 -78 -37 -19 -398 -233 -802 -475
-501 -301 -750 -456 -781 -488 -26 -25 -60 -70 -75 -102 -25 -50 -28 -66 -29
-156 0 -93 2 -105 33 -167 38 -78 100 -138 182 -177 47 -22 68 -26 150 -26 74
0 106 5 140 20 25 11 298 172 608 357 309 186 566 338 572 338 6 0 9 -225 9
-615 0 -571 -1 -616 -17 -625 -9 -6 -403 -242 -875 -525 l-857 -514 -508 304
c-279 168 -508 309 -510 313 -1 5 77 57 175 116 197 119 202 123 255 185 117
138 98 379 -40 502 -100 89 -246 123 -364 84 -29 -9 -219 -117 -422 -238 -294
-177 -384 -236 -443 -291 -128 -119 -210 -257 -255 -426 l-23 -85 0 -2175 0
-2175 23 -85 c45 -169 127 -307 255 -426 65 -61 286 -196 1829 -1122 965 -579
1782 -1064 1815 -1077 123 -50 179 -60 333 -60 239 1 278 16 750 299 328 196
380 238 421 343 31 79 31 195 0 275 -49 127 -179 223 -317 235 -99 8 -163 -14
-319 -107 -72 -44 -138 -82 -147 -85 -15 -6 -17 43 -17 609 l-1 616 39 19 c21
11 413 246 872 522 459 275 839 501 844 502 6 0 239 -138 518 -305 l508 -306
-98 -60 c-54 -33 -352 -212 -663 -398 -436 -260 -577 -349 -616 -389 -127
-128 -136 -345 -21 -487 46 -57 128 -112 192 -129 68 -19 168 -13 232 13 69
28 1663 982 1744 1044 153 117 261 284 312 482 l22 87 0 2170 0 2170 -23 85
c-47 179 -155 352 -285 457 -61 50 -3437 2083 -3569 2149 -114 57 -195 76
-353 79 -77 2 -151 1 -165 -1z m1911 -1781 c758 -456 1379 -830 1379 -833 -1
-3 -232 -143 -515 -313 l-514 -307 -84 52 c-46 29 -438 265 -869 523 l-786
470 -6 38 c-11 66 -7 1197 5 1197 6 0 631 -372 1390 -827z m-1066 -1474 c368
-221 674 -405 678 -409 5 -4 -37 -35 -91 -69 -125 -76 -176 -136 -208 -247
-77 -265 178 -528 446 -460 36 9 99 37 140 61 l75 44 3 -822 c2 -788 1 -823
-16 -847 -19 -25 -1325 -818 -1350 -819 -10 -1 -12 191 -12 977 1 569 -3 990
-8 1007 -18 57 -53 117 -96 158 -26 27 -337 219 -850 526 -543 326 -804 487
-794 492 7 5 312 188 678 408 532 320 672 400 700 401 28 0 158 -74 705 -401z
m-3672 -344 l467 -280 0 -1065 -1 -1065 -497 -297 c-274 -164 -501 -298 -505
-298 -4 0 -7 750 -7 1666 l0 1665 38 -23 c21 -13 248 -149 505 -303z m6477
-1345 c0 -913 -3 -1660 -7 -1660 -4 0 -232 134 -505 297 l-497 298 0 1065 0
1065 497 297 c273 164 500 298 505 298 4 0 7 -747 7 -1660z m-4571 199 c491
-294 676 -410 682 -427 10 -27 11 -1608 1 -1635 -6 -15 -107 43 -672 382 -568
340 -668 403 -682 432 -17 32 -18 93 -18 847 0 447 3 811 8 809 4 -2 310 -186
681 -408z m-166 -2449 l856 -514 1 -614 c0 -518 -2 -613 -14 -610 -18 4 -2765
1651 -2765 1658 0 3 230 143 512 312 452 270 514 305 533 295 11 -7 406 -244
877 -527z"/>
</g>
</svg>
